<?xml version="1.0" standalone="no"?>
<!DOCTYPE svg PUBLIC "-//W3C//DTD SVG 20010904//EN"
 "http://www.w3.org/TR/2001/REC-SVG-20010904/DTD/svg10.dtd">
<svg version="1.0" xmlns="http://www.w3.org/2000/svg"
 width="1920.000000pt" height="760.000000pt" viewBox="0 0 1920.000000 760.000000"
 preserveAspectRatio="xMidYMid meet">
<metadata>
Created by potrace 1.16, written by Peter Selinger 2001-2019
</metadata>
<g transform="translate(0.000000,760.000000) scale(0.100000,-0.100000)"
fill="#000000" stroke="none">
<path d="M3205 6632 c-3 -4 -70 -14 -97 -15 -10 -1 -18 -4 -18 -7 0 -3 -9 -6
-19 -7 -25 -2 -161 -65 -192 -89 -94 -73 -163 -174 -187 -274 -6 -25 -12 -100
-13 -168 -1 -128 -14 -190 -49 -247 -38 -62 -98 -109 -153 -121 -12 -3 -35 -8
-52 -12 -16 -3 -318 -7 -670 -9 -352 -1 -653 -5 -669 -8 -102 -19 -218 -115
-269 -222 l-32 -68 0 -1520 0 -1520 32 -66 c42 -86 109 -151 197 -194 l71 -34
524 -1 c289 0 527 -3 530 -5 8 -9 71 67 71 85 0 10 -13 32 -29 49 l-29 31
-509 2 c-279 0 -514 1 -520 1 -7 -1 -13 4 -13 10 0 6 -3 8 -6 4 -8 -8 -62 19
-92 47 -13 12 -34 43 -48 71 l-23 50 -1 1012 0 1013 631 0 c597 0 631 -1 624
-17 -51 -127 -122 -378 -127 -449 -1 -16 -4 -33 -6 -38 -22 -42 -20 -539 2
-575 4 -6 5 -15 2 -19 -8 -13 68 -305 103 -401 125 -335 347 -646 632 -883 66
-55 221 -160 314 -214 71 -41 282 -132 340 -148 6 -1 37 -11 70 -21 33 -10 63
-18 67 -17 4 1 25 -5 47 -13 23 -8 44 -14 46 -14 3 1 23 -2 45 -6 124 -21 197
-27 350 -29 80 -1 174 2 210 6 36 5 87 11 113 13 27 3 52 7 56 10 5 2 27 7 51
10 23 3 46 8 51 10 5 3 21 8 36 10 46 7 57 10 71 18 6 5 12 6 12 2 0 -3 13 1
30 10 16 8 41 16 55 17 14 1 25 6 25 11 0 4 5 5 10 2 6 -3 10 -3 10 2 0 7 34
21 80 34 8 2 17 6 20 9 3 3 30 16 60 28 30 13 104 52 165 89 492 295 826 747
966 1308 12 50 22 100 22 113 -1 12 2 22 6 22 3 0 6 12 7 28 0 15 4 56 8 92
13 120 8 437 -9 490 -2 8 -7 35 -10 60 -3 25 -7 52 -10 60 -2 8 -6 26 -9 40
-7 45 -66 238 -86 285 -11 26 -20 51 -20 56 0 5 255 9 630 9 l631 0 -3 -1017
c-3 -1131 1 -1058 -70 -1124 -35 -32 -88 -64 -88 -53 0 4 -6 2 -12 -4 -17 -13
52 -12 -613 -12 l-586 0 -24 -25 c-33 -32 -34 -83 -2 -113 l23 -22 594 0 c327
0 609 3 625 5 17 3 36 6 43 7 6 1 12 5 12 10 0 4 7 8 16 8 19 0 109 63 141
100 13 14 37 54 54 90 17 36 35 73 40 82 13 25 12 3028 -1 3028 -6 0 -10 7
-10 15 0 26 -56 128 -88 161 -47 49 -142 110 -164 106 -5 -1 -8 2 -8 6 0 11
46 11 -665 11 -373 0 -651 5 -680 10 -88 18 -93 19 -122 35 -48 26 -95 77
-121 135 -24 53 -26 64 -24 198 2 89 -1 144 -8 148 -5 3 -10 15 -10 27 0 28
-56 136 -92 177 -47 54 -129 120 -170 138 -21 9 -38 20 -38 25 0 4 -3 7 -7 6
-14 -4 -103 26 -103 35 0 4 -4 5 -10 2 -5 -3 -16 -3 -22 1 -7 5 -29 9 -48 11
-55 3 -1811 8 -1815 5z m1802 -174 c7 -6 16 -8 19 -5 3 3 18 1 33 -5 14 -5 35
-11 45 -14 71 -14 179 -97 222 -170 29 -49 33 -72 35 -218 3 -229 89 -391 249
-472 104 -52 124 -53 805 -54 347 0 645 -2 664 -5 40 -5 75 -26 114 -67 63
-68 62 -56 65 -480 l3 -388 -671 -2 -672 -3 -26 50 c-31 62 -130 211 -189 285
-80 100 -256 272 -356 347 -87 66 -140 102 -250 167 -40 23 -150 79 -197 98
-127 53 -169 69 -197 70 -7 1 -13 5 -13 10 0 5 -4 7 -9 3 -5 -3 -12 -1 -16 4
-3 5 -14 8 -25 6 -11 -2 -20 1 -20 6 0 6 -4 8 -9 5 -5 -4 -22 -1 -36 4 -24 9
-64 17 -125 24 -9 1 -21 5 -28 10 -6 4 -15 5 -20 2 -4 -2 -30 0 -57 5 -56 11
-367 14 -460 4 -71 -7 -110 -13 -110 -15 0 -1 -11 -3 -25 -5 -14 -1 -43 -6
-65 -10 -22 -4 -48 -8 -57 -8 -10 -1 -18 -5 -18 -10 0 -5 -7 -7 -15 -3 -8 3
-15 2 -15 -3 0 -5 -12 -11 -27 -14 -16 -3 -38 -8 -50 -11 -13 -3 -32 -8 -42
-10 -10 -3 -33 -12 -50 -20 -16 -9 -35 -16 -41 -16 -33 0 -268 -121 -385 -197
-175 -115 -330 -251 -464 -410 -61 -73 -211 -294 -230 -341 -9 -22 -19 -31
-28 -28 -8 4 -309 6 -669 6 l-654 0 0 381 c1 294 4 389 14 414 28 67 99 127
166 140 14 3 319 5 679 5 463 1 659 4 668 12 7 6 16 8 20 5 3 -3 18 0 34 9 16
8 30 14 31 13 11 -7 101 53 144 95 99 100 140 210 143 386 2 145 7 182 32 230
43 87 201 185 291 182 10 0 20 3 23 8 9 15 1805 12 1822 -2z m-752 -943 c77
-6 137 -13 145 -16 3 -1 10 -3 15 -4 6 -1 29 -5 52 -9 24 -4 45 -8 48 -7 2 0
23 -6 45 -14 22 -8 40 -12 40 -9 0 3 6 2 13 -3 6 -4 17 -8 22 -10 6 -1 20 -4
32 -7 12 -2 30 -9 41 -15 11 -6 22 -7 26 -4 3 3 6 2 6 -4 0 -5 6 -10 14 -10
43 0 257 -106 387 -193 127 -84 197 -142 312 -260 160 -164 273 -327 369 -535
70 -151 129 -343 142 -460 4 -27 10 -75 15 -105 13 -71 13 -369 0 -440 -5 -30
-11 -77 -15 -105 -16 -145 -96 -382 -187 -555 -149 -283 -387 -542 -657 -715
-96 -62 -260 -146 -272 -139 -4 3 -8 1 -8 -4 0 -9 -79 -39 -92 -34 -5 1 -8 -3
-8 -10 0 -6 -3 -9 -6 -5 -4 3 -19 0 -35 -9 -16 -8 -29 -12 -29 -10 0 3 -16 -2
-35 -10 -19 -8 -35 -12 -35 -10 0 3 -17 -1 -37 -8 -21 -7 -44 -11 -50 -9 -7 3
-13 1 -13 -4 0 -5 -8 -9 -17 -10 -37 -4 -88 -11 -88 -13 0 -7 -206 -23 -295
-23 -103 1 -295 16 -295 23 0 1 -16 4 -35 6 -35 4 -75 11 -75 14 0 2 -54 11
-72 12 -7 1 -13 5 -13 10 0 5 -4 6 -10 3 -5 -3 -19 -1 -31 5 -11 7 -33 14 -47
16 -15 3 -33 11 -41 17 -8 7 -16 11 -18 9 -6 -6 -63 9 -63 17 0 4 -6 8 -13 8
-33 0 -352 172 -377 203 -3 4 -12 11 -21 16 -9 5 -34 23 -55 39 -233 183 -411
404 -539 670 -116 238 -157 394 -187 702 -19 200 18 502 87 708 107 321 315
637 545 830 40 33 86 72 103 87 18 15 35 28 39 28 4 0 13 6 20 13 43 41 271
171 282 160 3 -4 6 -1 6 5 0 6 10 14 23 18 12 4 46 18 75 31 29 13 57 21 62
18 6 -3 10 -2 10 3 0 12 122 49 183 55 9 1 17 5 17 10 0 5 6 7 14 4 8 -3 17
-3 20 1 8 7 23 10 89 17 27 3 52 7 56 9 4 3 49 7 100 10 52 3 96 7 98 10 5 4
85 1 218 -9z"/>
<path d="M3960 5049 c-30 -5 -73 -11 -95 -13 -22 -3 -55 -9 -72 -15 -18 -5
-33 -8 -33 -6 0 3 -12 0 -27 -6 -16 -6 -35 -12 -43 -14 -88 -22 -369 -159
-400 -195 -3 -3 -21 -17 -40 -30 -249 -172 -478 -527 -540 -835 -7 -33 -14
-67 -17 -75 -23 -69 -23 -434 1 -457 3 -4 6 -17 6 -29 0 -60 65 -254 124 -372
103 -205 221 -348 425 -514 66 -55 342 -201 374 -198 4 0 21 -7 37 -15 17 -9
30 -13 30 -10 0 3 8 1 18 -4 11 -6 32 -12 48 -15 16 -3 42 -8 57 -12 16 -3 38
-7 50 -9 12 -1 62 -8 111 -15 80 -11 273 -9 293 3 8 5 97 18 136 20 9 1 17 5
17 10 0 5 6 7 13 4 6 -2 19 -1 28 4 16 8 63 20 87 21 6 1 12 6 12 11 0 6 3 8
6 4 4 -3 24 3 45 13 21 11 45 20 53 20 8 0 16 3 18 8 2 4 32 22 68 39 163 81
369 254 479 401 111 148 210 352 246 505 9 40 19 79 22 87 3 8 7 29 9 45 2 17
7 53 10 80 9 66 9 227 0 290 -4 28 -9 66 -11 85 -2 19 -4 35 -5 35 -1 0 -3 7
-5 15 -11 57 -52 188 -81 258 -120 291 -344 545 -620 701 -49 28 -95 51 -102
51 -7 0 -12 5 -12 10 0 6 -8 10 -18 10 -9 0 -34 9 -54 19 -19 11 -39 17 -42
14 -3 -4 -6 -2 -6 4 0 5 -6 10 -12 11 -26 1 -72 13 -88 22 -10 5 -20 7 -22 4
-3 -2 -18 0 -34 7 -16 6 -45 13 -64 15 -19 2 -57 6 -85 10 -84 11 -237 13
-295 3z m320 -171 c19 -2 41 -7 48 -12 7 -4 16 -6 19 -3 2 3 22 -1 44 -8 21
-8 39 -12 39 -9 0 3 6 2 13 -3 6 -4 17 -8 22 -10 65 -14 117 -34 204 -78 236
-118 443 -328 564 -570 38 -78 94 -241 101 -295 2 -19 9 -62 14 -95 13 -73 13
-274 1 -333 -5 -24 -12 -62 -14 -85 -8 -60 -62 -220 -102 -302 -91 -183 -258
-377 -413 -482 -110 -74 -295 -163 -322 -155 -5 1 -8 -2 -8 -7 0 -6 -9 -8 -20
-6 -11 2 -22 -1 -25 -6 -4 -5 -11 -7 -16 -4 -5 4 -9 2 -9 -3 0 -5 -10 -10 -22
-11 -29 -1 -73 -8 -73 -10 0 -19 -427 -20 -460 -2 -8 4 -43 11 -72 13 -7 1
-13 5 -13 10 0 5 -4 6 -10 3 -5 -3 -23 1 -40 10 -16 8 -32 15 -35 15 -23 1
-65 14 -65 22 0 5 -4 7 -8 4 -5 -3 -48 15 -96 39 -282 143 -522 416 -619 706
-26 75 -54 190 -55 219 0 8 -5 57 -10 108 -6 57 -6 127 0 185 5 50 10 99 10
107 0 8 6 42 14 75 67 301 250 574 506 758 98 70 283 160 323 157 3 0 18 6 33
13 26 13 66 24 122 33 14 2 45 7 70 12 42 8 282 8 360 0z"/>
<path d="M1382 6289 c-99 -56 -132 -128 -132 -286 0 -102 1 -105 29 -134 34
-34 69 -37 102 -10 22 18 24 29 30 135 8 172 -30 157 400 156 424 0 389 13
389 -145 0 -97 2 -105 26 -134 33 -39 71 -41 108 -5 25 26 26 31 26 137 0 141
-12 179 -75 242 -72 73 -91 76 -507 75 l-345 -1 -51 -30z"/>
<path d="M16456 4516 c-7 -6 -35 -72 -60 -146 -72 -205 -95 -256 -137 -304
-54 -61 -166 -100 -205 -71 -18 13 -19 29 -16 268 l4 255 -204 -1 -203 -2 2
-165 c1 -91 6 -255 11 -365 7 -130 7 -304 0 -499 -5 -165 -7 -310 -4 -322 5
-18 16 -24 52 -30 76 -11 331 1 350 17 14 12 16 31 10 159 -4 80 -9 184 -12
231 l-6 86 46 21 c25 12 49 22 54 22 9 0 105 -161 212 -355 40 -71 81 -139 91
-150 18 -19 33 -20 198 -20 202 0 211 3 211 66 0 51 -52 150 -225 424 l-138
219 24 16 c117 76 212 241 289 502 17 59 30 117 28 130 l-3 23 -178 1 c-114 0
-183 -3 -191 -10z"/>
<path d="M9015 4456 c-196 -46 -342 -161 -440 -347 -59 -112 -78 -202 -78
-364 0 -161 18 -247 77 -361 120 -236 321 -356 596 -357 132 -1 210 16 310 66
83 41 200 152 200 188 0 42 -147 259 -175 259 -8 0 -43 -22 -79 -49 -90 -68
-162 -94 -251 -89 -42 2 -86 12 -110 23 -161 79 -230 327 -140 505 34 68 66
102 127 135 46 26 63 30 133 30 96 -1 158 -25 249 -97 32 -26 63 -48 67 -48
29 0 169 242 169 292 0 53 -167 167 -300 204 -79 21 -280 27 -355 10z"/>
<path d="M13025 4098 c-172 -33 -317 -177 -360 -359 -17 -76 -19 -207 -4 -281
28 -133 116 -252 235 -315 192 -102 494 -79 640 49 44 39 42 60 -18 165 -62
108 -62 108 -128 67 -137 -86 -294 -84 -372 4 l-32 37 45 7 c24 4 136 17 249
28 243 26 280 33 294 57 34 57 22 195 -26 293 -39 81 -133 177 -208 213 -92
45 -201 57 -315 35z m154 -277 c32 -23 64 -82 59 -109 -4 -19 -110 -40 -210
-41 -57 -1 -58 0 -58 27 0 15 10 48 23 72 39 78 118 99 186 51z"/>
<path d="M14781 4099 c-130 -23 -255 -117 -311 -234 -41 -85 -52 -144 -52
-265 0 -128 23 -210 85 -302 85 -126 199 -190 342 -190 93 0 151 20 213 76 22
20 44 36 49 36 6 0 13 -19 16 -41 3 -23 10 -46 15 -51 14 -14 297 1 319 17 15
11 16 27 5 201 -19 298 -14 535 13 661 4 15 -1 26 -15 33 -28 15 -211 50 -260
50 -37 0 -40 -2 -51 -40 -7 -22 -14 -40 -16 -40 -2 0 -21 13 -41 30 -20 16
-55 36 -76 45 -49 20 -162 27 -235 14z m238 -317 c19 -9 48 -34 65 -55 28 -35
31 -45 31 -112 0 -67 -3 -77 -31 -112 -78 -98 -214 -97 -291 3 -21 29 -28 50
-31 100 -4 54 -1 70 22 107 45 78 155 110 235 69z"/>
<path d="M17586 4093 c-4 -4 -6 -131 -6 -282 2 -308 3 -303 -76 -348 -46 -27
-74 -28 -119 -7 -62 29 -70 62 -70 294 0 113 2 234 5 270 l5 65 -167 3 c-191
3 -178 9 -197 -93 -31 -159 -21 -545 16 -654 41 -122 123 -182 261 -189 103
-6 148 7 258 70 48 27 87 48 88 46 2 -2 7 -25 12 -52 8 -46 12 -51 44 -59 49
-13 290 -1 306 15 9 10 11 120 7 471 l-6 457 -177 0 c-97 0 -180 -3 -184 -7z"/>
<path d="M13855 4065 c-60 -13 -127 -24 -147 -24 -47 -1 -53 -19 -34 -102 25
-108 36 -272 36 -546 0 -249 1 -263 19 -273 25 -13 291 -13 326 0 l26 10 -6
88 c-3 48 -7 163 -8 255 l-2 169 28 24 c26 22 37 24 131 24 71 0 107 4 114 13
6 7 10 73 10 164 0 83 3 156 6 161 3 6 3 17 0 26 -5 12 -20 16 -65 16 -66 0
-141 -25 -211 -69 l-46 -30 -7 42 c-14 90 -3 87 -170 52z"/>
<path d="M11543 4060 c-53 -11 -115 -42 -181 -92 -30 -22 -55 -38 -56 -36 -2
1 -7 30 -12 63 l-9 60 -34 -3 c-19 -2 -68 -12 -109 -23 -42 -10 -89 -19 -106
-19 -17 0 -48 -5 -70 -11 l-38 -11 6 -56 c21 -188 26 -286 26 -542 0 -157 4
-291 8 -298 7 -9 49 -12 178 -10 l169 3 0 296 c0 333 -3 319 77 360 64 33 120
20 150 -34 9 -16 14 -106 18 -317 l5 -295 175 0 175 0 -4 266 c-4 296 0 320
54 368 44 38 92 48 133 27 55 -29 57 -36 60 -351 3 -255 5 -292 19 -302 20
-16 278 -18 317 -3 l26 9 -6 388 c-6 384 -6 389 -30 439 -45 95 -138 138 -287
132 -82 -3 -101 -7 -159 -37 -36 -18 -85 -52 -109 -74 -31 -30 -44 -37 -47
-27 -10 32 -98 106 -142 119 -58 17 -144 22 -197 11z"/>
<path d="M10060 4032 c-207 -54 -329 -233 -330 -484 0 -150 43 -267 136 -368
77 -82 158 -122 265 -128 103 -6 157 10 236 69 l62 48 6 -37 c11 -69 8 -67
154 -63 73 1 144 6 159 10 l27 7 -1 120 c-1 65 -3 225 -5 354 -3 166 0 261 10
323 7 50 10 92 5 97 -12 11 -195 48 -258 52 -47 3 -49 2 -58 -27 -5 -16 -11
-36 -14 -43 -2 -8 -19 -1 -49 23 -85 64 -212 82 -345 47z m277 -308 c72 -35
115 -133 93 -215 -18 -64 -82 -125 -142 -134 -142 -21 -257 122 -203 252 32
76 85 113 163 113 30 0 70 -7 89 -16z"/>
</g>
</svg>
